<?xml version="1.0" encoding="utf-8"?>
<!-- Generator: Adobe Illustrator 18.1.1, SVG Export Plug-In . SVG Version: 6.00 Build 0)  -->
<svg version="1.1" id="Capa_1" xmlns="http://www.w3.org/2000/svg" xmlns:xlink="http://www.w3.org/1999/xlink" x="0px" y="0px"
	 viewBox="-234 326.3 141.7 141.7" enable-background="new -234 326.3 141.7 141.7" xml:space="preserve">
<ellipse fill="#FF3333" cx="-163.1" cy="397.1" rx="70.9" ry="70.8"/>
<g>
	<g>
		<path fill="#FFFDFD" d="M-206.4,386.9c-1.9,0.8-3.3,2.4-3.5,4.4c-0.3,1.9,0.5,3.8,2.2,5.2l17.7,12.8l62.8-49.2l-55.5,54.6
			l24.2,17.7c1.6,1.1,3.5,1.4,5.4,0.8c1.9-0.5,3.3-1.9,3.8-3.8l25.8-70.7c0.3-0.8,0-1.6-0.5-2.2c-0.5-0.5-1.4-0.8-2.2-0.5
			L-206.4,386.9z"/>
		<path fill="#FFFDFD" d="M-194.1,413.2l0.3,0.8l3.5,18.8c0.3,1.4,1.1,2.4,2.4,3c1.4,0.5,2.7,0.5,4.1-0.3c4.9-3,10.9-7.1,10.9-7.3
			L-194.1,413.2z"/>
	</g>
</g>
</svg>
