<?xml version="1.0" encoding="utf-8"?>
<!-- Generator: Adobe Illustrator 15.1.0, SVG Export Plug-In . SVG Version: 6.00 Build 0)  -->
<!DOCTYPE svg PUBLIC "-//W3C//DTD SVG 1.1//EN" "http://www.w3.org/Graphics/SVG/1.1/DTD/svg11.dtd">
<svg version="1.1" id="Calque_1" xmlns="http://www.w3.org/2000/svg" xmlns:xlink="http://www.w3.org/1999/xlink" x="0px" y="0px"
	 width="28.35px" height="28.35px" viewBox="0 0 28.35 28.35" enable-background="new 0 0 28.35 28.35" xml:space="preserve">
<circle cx="14.1" cy="14.244" r="13.088"/>
<circle fill="#FFFFFF" cx="14.1" cy="14.244" r="3.017"/>
<circle cx="14.099" cy="14.244" r="0.768"/>
<path fill="#FFFFFF" d="M4.716,13.585c-0.276,0-0.5-0.224-0.5-0.5c0-4.796,3.902-8.698,8.698-8.698c0.276,0,0.5,0.224,0.5,0.5
	s-0.224,0.5-0.5,0.5c-4.245,0-7.698,3.454-7.698,7.698C5.216,13.361,4.992,13.585,4.716,13.585z"/>
<path fill="#FFFFFF" d="M8.115,13.912c-0.276,0-0.5-0.224-0.5-0.5c0-3.102,2.524-5.626,5.626-5.626c0.276,0,0.5,0.224,0.5,0.5
	s-0.224,0.5-0.5,0.5c-2.551,0-4.626,2.075-4.626,4.626C8.615,13.688,8.391,13.912,8.115,13.912z"/>
<path fill="#FFFFFF" d="M15.262,24.127c-0.276,0-0.5-0.224-0.5-0.5s0.224-0.5,0.5-0.5c4.245,0,7.698-3.453,7.698-7.697
	c0-0.276,0.224-0.5,0.5-0.5s0.5,0.224,0.5,0.5C23.96,20.226,20.058,24.127,15.262,24.127z"/>
<path fill="#FFFFFF" d="M14.936,20.729c-0.276,0-0.5-0.224-0.5-0.5s0.224-0.5,0.5-0.5c2.55,0,4.625-2.075,4.625-4.627
	c0-0.276,0.224-0.5,0.5-0.5s0.5,0.224,0.5,0.5C20.561,18.204,18.037,20.729,14.936,20.729z"/>
</svg>
