<?xml version="1.0" encoding="utf-8"?>
<!-- Generator: Adobe Illustrator 18.1.1, SVG Export Plug-In . SVG Version: 6.00 Build 0)  -->
<svg version="1.1" id="Capa_1" xmlns="http://www.w3.org/2000/svg" xmlns:xlink="http://www.w3.org/1999/xlink" x="0px" y="0px"
	 viewBox="0 0 612 610.6" enable-background="new 0 0 612 610.6" xml:space="preserve">
<g>
	<g>
		<path fill="#FF3333" d="M306,0C137.3,0,0.6,136.7,0.6,305.4S137.3,610.8,306,610.8s305.4-136.7,305.4-305.4
			C612.6,137.9,474.7,0,306,0z M382.3,316.5H333c0,80,0,177.3,0,177.3h-73.9c0,0,0-97.3,0-177.3h-34.5v-61.6h34.5v-40.6
			c0-29.6,13.5-73.9,73.9-73.9h54.2v60.3c0,0-33.2,0-39.4,0c-6.2,0-16,3.7-16,17.2v36.9h56.6L382.3,316.5z"/>
	</g>
</g>
</svg>
