<?xml version="1.0" encoding="utf-8"?>
<!-- Generator: Adobe Illustrator 15.1.0, SVG Export Plug-In . SVG Version: 6.00 Build 0)  -->
<!DOCTYPE svg PUBLIC "-//W3C//DTD SVG 1.1//EN" "http://www.w3.org/Graphics/SVG/1.1/DTD/svg11.dtd">
<svg version="1.1" id="Calque_1" xmlns="http://www.w3.org/2000/svg" xmlns:xlink="http://www.w3.org/1999/xlink" x="0px" y="0px"
	 width="85.04px" height="36.85px" viewBox="0 0 85.04 36.85" enable-background="new 0 0 85.04 36.85" xml:space="preserve">
<g>
	<path fill-rule="evenodd" clip-rule="evenodd" fill="#E83E33" d="M76.618,9.347c-0.582,1.111-1.194,2.189-2.242,2.832
		c-0.676-0.425-1.538-0.666-2.242-1.062c0.203-1.174,0.733-2.02,1.18-2.95C74.79,8.185,75.754,8.716,76.618,9.347z"/>
	<path fill-rule="evenodd" clip-rule="evenodd" fill="#E83E33" d="M56.675,25.631c3.274-3.452,5.631-7.822,8.024-12.154
		c1.228,0.189,2.055,0.778,2.832,1.417c-2.033,3.709-3.757,7.728-4.602,12.625c4.66-2.656,5.18-9.452,7.906-14.042
		c1.161,0.216,2.044,0.71,2.714,1.417c-1.855,3.849-3.74,7.667-4.484,12.625c1.574-1.265,3.332-2.772,4.248-4.838
		c1.084-2.44,1.167-5.512,2.478-7.906c-0.396-0.273-1.296-0.042-1.887-0.118c0.048-1.25,1.278-1.316,2.359-1.534
		c0.906-1.415,1.432-3.21,2.36-4.602c1.201,0.292,2.021,0.969,2.832,1.652c-0.517,0.901-1.109,1.723-1.534,2.714
		c0.536,0.329,1.513,0.218,2.359,0.236c-0.399,0.818-0.813,1.624-1.415,2.242c-0.661-0.046-1.07-0.346-1.771-0.354
		c-1.898,3.646-3.119,7.973-4.131,12.507c2.286-1.058,3.576-3.109,5.074-4.955c0.522-0.011,0.853,0.171,1.062,0.472
		c-0.429,0.963-1.551,2.496-2.832,3.776c-1.62,1.62-4.225,3.824-6.018,1.651c-0.04-0.866,0.095-1.557,0.236-2.242
		c-1.367,1.035-4.032,4.865-6.255,2.242c-0.071-0.857,0.091-1.482,0.118-2.242c-1.31,1.065-4.186,4.967-6.254,2.125
		c0.089-2.075,0.436-3.891,0.943-5.547c-1.735,1.961-3.387,5.03-5.782,6.727c-1.014-0.284-1.651-0.945-2.478-1.416
		c-0.04-0.552,0.255-0.769,0.354-1.181c-1.335,0.841-4.258,4.078-6.018,1.417c-0.035-0.823,0.198-1.376,0.235-2.125
		c-1.309,1.065-4.185,4.967-6.253,2.125c0.027-1.075,0.157-2.046,0.354-2.951c-0.641,0.417-1.37,1.844-2.36,2.832
		c-0.381,0.382-1.335,1.268-1.77,1.299c-1.008,0.071-2.989-1.731-2.479-3.776c-1.444,1.151-3.169,3.045-5.31,3.894
		c-1.131-0.402-1.762-1.306-2.242-2.359c1.234-3.604,2.781-6.896,4.484-10.03c-0.183-0.525-0.736-0.681-1.062-1.062
		c-1.355,2.264-2.267,4.969-3.894,6.962c-0.681,0.092-0.792-0.389-1.18-0.59c1.977-3.294,3.248-7.293,4.248-11.565
		c1.191,0.106,1.992,0.605,2.714,1.18c-0.483,0.815-0.743,1.853-1.298,2.596c1.248,0.836,2.769,1.401,3.54,2.714
		c-1.563,3.235-3.294,6.303-4.365,10.03c1.678-1.131,3.807-2.506,4.956-5.074c0.622-1.39,0.86-2.81,1.534-4.129
		c0.828-1.621,2.578-4.992,5.075-4.839c1.341,0.083,1.959,1.202,2.95,1.888c0.315-0.629,0.63-1.258,0.943-1.888
		c1.248,0.13,1.981,0.772,2.833,1.298c-1.943,3.918-4.006,7.716-4.838,12.744c4.191-2.298,4.971-8.01,6.726-12.744
		c-0.396-0.273-1.296-0.042-1.888-0.118c0.101-1.236,1.327-1.348,2.478-1.534c0.754-1.528,1.38-3.183,2.242-4.602
		c1.193,0.301,2.058,0.932,2.832,1.652c-0.482,0.933-1.072,1.76-1.534,2.714c0.537,0.329,1.513,0.218,2.36,0.236
		c-0.348,0.872-0.793,1.645-1.417,2.242c-0.688-0.019-1.016-0.4-1.769-0.354c-1.865,3.68-3.08,8.012-4.13,12.507
		c5.085-2.309,6.246-8.543,7.788-14.396c1.18,0.353,2.217,0.851,3.066,1.534C59.532,18.498,58.225,22.185,56.675,25.631z
		 M39.329,20.911c-0.871,2.123-1.494,4.317-1.534,6.372c3.395-2.388,5.062-6.503,6.608-10.738
		C41.531,15.053,40.238,18.696,39.329,20.911z"/>
	<path fill-rule="evenodd" clip-rule="evenodd" fill="#E83E33" d="M12.307,27.401c-0.026-2.94,0.568-5.744,1.77-8.496
		c0.88-2.018,2.651-5.236,4.72-5.429c1.649-0.153,2.473,1.142,3.422,2.006c0.431-0.552,0.593-1.374,0.944-2.006
		c1.239,0.138,1.949,0.805,2.833,1.298c-1.692,3.252-2.772,7.797-4.484,12.272c-1.779,4.649-4.823,10.241-10.975,8.261
		c-0.692-0.224-2.166-0.928-2.241-1.299c-0.143-0.697,1.983-2.399,2.124-3.067c0.891,1.232,1.565,2.682,3.068,3.304
		c3.004-1.677,3.875-5.486,5.31-8.732c-0.915,0.573-2.556,3.946-4.012,4.013C13.762,29.571,12.939,28.257,12.307,27.401z
		 M19.269,16.427c-2.351,1.867-3.597,7.189-4.012,10.856c3.294-2.449,5.28-6.206,6.608-10.62
		C20.921,16.146,20.003,15.843,19.269,16.427z"/>
	<g>
		<path fill-rule="evenodd" clip-rule="evenodd" fill="#E83E33" d="M19.387,0.261c0.9,0.004,1.587,0.222,2.36,0.354
			c-0.641,2.269-1.509,4.312-2.479,6.254c-0.474-0.077-0.974-0.127-1.298-0.354C18.594,4.581,19.007,2.438,19.387,0.261z"/>
		<path fill-rule="evenodd" clip-rule="evenodd" fill="#E83E33" d="M8.064,3.644C8.601,2.92,9.183,2.496,9.746,1.95
			c1.452,1.859,2.587,3.767,3.579,5.696c-0.342,0.337-0.679,0.71-1.053,0.837C11.081,6.838,9.595,5.238,8.064,3.644z"/>
		<path fill-rule="evenodd" clip-rule="evenodd" fill="#E83E33" d="M2.095,14.849c-0.159-0.886-0.07-1.601-0.081-2.385
			c2.348,0.217,4.516,0.698,6.601,1.298c0.011,0.48,0.052,0.981-0.112,1.341C6.487,14.842,4.304,14.827,2.095,14.849z"/>
	</g>
</g>
</svg>
