<?xml version="1.0" encoding="utf-8"?>
<!-- Generator: Adobe Illustrator 18.1.1, SVG Export Plug-In . SVG Version: 6.00 Build 0)  -->
<svg version="1.1" id="Capa_1" xmlns="http://www.w3.org/2000/svg" xmlns:xlink="http://www.w3.org/1999/xlink" x="0px" y="0px"
	 viewBox="-66 158.1 477.9 477.9" enable-background="new -66 158.1 477.9 477.9" xml:space="preserve">
<g>
	<g>
		<path fill="#FF3333" d="M173,158.1c-132,0-239,107-239,239S41,636,173,636c132,0,239-107,239-239S304.9,158.1,173,158.1z
			 M147.7,340.4l44.1-44.1c21.3-21.3,57.1-20.3,79.6,2.3c22.6,22.6,23.6,58.3,2.3,79.7l-44.1,44.1c-21.3,21.3-57.1,20.3-79.6-2.3
			c-7.9-7.9-13-17.3-15.6-27.2l1.6-1.6c4.2-4.2,9.6-6.5,15.3-7.1c1.3,8.3,5.2,16.4,11.8,22.9c15.4,15.4,39.5,16.4,53.6,2.3
			l44.1-44.1c14.2-14.2,13.2-38.2-2.3-53.6c-15.4-15.4-39.5-16.4-53.6-2.3l-38.9,38.9c-8.3-1.5-16.7-1.4-24.7,0.2
			C143,345.7,145.1,343,147.7,340.4z M198.3,453.6l-44.1,44.1c-21.3,21.3-57.1,20.3-79.7-2.3c-22.6-22.6-23.6-58.3-2.3-79.7
			l44.1-44.1c21.3-21.3,57.1-20.3,79.6,2.3c7.9,7.9,13,17.3,15.6,27.2l-1.6,1.6c-4.2,4.2-9.6,6.5-15.3,7.1
			c-1.3-8.3-5.2-16.4-11.8-22.9c-15.4-15.4-39.5-16.4-53.6-2.3l-44.1,44.1c-14.2,14.2-13.1,38.2,2.3,53.6
			c15.4,15.4,39.5,16.4,53.6,2.3l38.9-38.9c8.3,1.5,16.7,1.4,24.8-0.2C202.9,448.4,200.8,451.1,198.3,453.6z"/>
	</g>
</g>
</svg>
