<?xml version="1.0" encoding="utf-8"?>
<!-- Generator: Adobe Illustrator 18.1.1, SVG Export Plug-In . SVG Version: 6.00 Build 0)  -->
<svg version="1.1" id="Capa_1" xmlns="http://www.w3.org/2000/svg" xmlns:xlink="http://www.w3.org/1999/xlink" x="0px" y="0px"
	 viewBox="0 0 612 610.8" enable-background="new 0 0 612 610.8" xml:space="preserve">
<g>
	<g>
		<path fill="#FF3333" d="M306,0C137.3,0,0.6,136.7,0.6,305.4c0,168.7,136.7,305.4,305.4,305.4c168.7,0,305.4-136.7,305.4-305.4
			C612.6,137.9,474.7,0,306,0z M442.7,236.4c0,2.5,0,6.2,0,8.6c0,93.6-70.2,200.7-200.7,200.7c-39.4,0-76.3-11.1-108.4-32
			c4.9,1.2,11.1,1.2,17.2,1.2c33.2,0,62.8-11.1,87.4-29.6c-30.8,0-56.6-20.9-65.3-49.3c3.7,1.2,8.6,1.2,13.5,1.2
			c6.2,0,12.3-1.2,18.5-2.5c-32-6.2-56.6-34.5-56.6-69c0,0,0,0,0-1.2c9.9,4.9,20.9,8.6,32,8.6c-18.5-12.3-30.8-34.5-30.8-59.1
			c0-12.3,3.7-24.6,9.9-35.7c34.5,43.1,86.2,70.2,145.3,73.9c-1.2-4.9-1.2-11.1-1.2-16c0-39.4,32-70.2,70.2-70.2
			c19.7,0,38.2,8.6,51.7,22.2c16-3.7,30.8-8.6,44.3-17.2c-4.9,16-16,30.8-30.8,39.4c14.8-1.2,28.3-4.9,40.6-11.1
			C468.5,214.3,456.2,226.6,442.7,236.4z"/>
	</g>
</g>
</svg>
