<?xml version="1.0" encoding="iso-8859-1"?>
<!-- Generator: Adobe Illustrator 16.0.0, SVG Export Plug-In . SVG Version: 6.00 Build 0)  -->
<!DOCTYPE svg PUBLIC "-//W3C//DTD SVG 1.1//EN" "http://www.w3.org/Graphics/SVG/1.1/DTD/svg11.dtd">
<svg version="1.1" id="Capa_1" xmlns="http://www.w3.org/2000/svg" xmlns:xlink="http://www.w3.org/1999/xlink" x="0px" y="0px"
	 width="132.364px" height="132.363px" viewBox="0 0 132.364 132.363" style="enable-background:new 0 0 132.364 132.363;"
	 xml:space="preserve">
<g>
	<g>
		<circle cx="66.181" cy="66.183" r="6.9"/>
		<path d="M66.181,0C29.632,0,0,29.632,0,66.181c0,36.554,29.632,66.183,66.181,66.183c36.549,0,66.183-29.633,66.183-66.183
			C132.364,29.632,102.73,0,66.181,0z M18.847,52.301c-0.535,1.394-1.863,2.251-3.272,2.251c-0.415,0-0.838-0.074-1.252-0.234
			c-1.805-0.691-2.711-2.719-2.018-4.527c0.448-1.172,11.343-28.812,41.131-36.459c1.876-0.479,3.784,0.647,4.266,2.523
			c0.481,1.873-0.65,3.784-2.523,4.266C28.856,26.875,18.943,52.047,18.847,52.301z M35.59,54.88
			c-0.54,1.385-1.866,2.238-3.27,2.238c-0.417,0-0.843-0.075-1.259-0.236c-1.801-0.696-2.702-2.712-2.011-4.516
			c0.283-0.738,7.147-18.156,25.908-22.973c1.876-0.479,3.784,0.646,4.266,2.523c0.481,1.875-0.647,3.784-2.523,4.266
			C41.517,40.076,35.65,54.73,35.59,54.88z M46.326,66.181c0-10.962,8.891-19.854,19.854-19.854c10.965,0,19.854,8.89,19.854,19.854
			c0,10.965-8.889,19.854-19.854,19.854C55.217,86.035,46.326,77.146,46.326,66.181z M73.207,101.858
			c-0.481-1.875,0.647-3.786,2.522-4.266c15.186-3.9,21.057-18.557,21.111-18.704c0.703-1.8,2.726-2.696,4.53-2.001
			c1.8,0.695,2.701,2.715,2.008,4.519c-0.283,0.737-7.149,18.155-25.909,22.976c-0.292,0.075-0.586,0.109-0.873,0.109
			C75.038,104.491,73.615,103.441,73.207,101.858z M78.998,120.436c-0.292,0.075-0.588,0.109-0.876,0.109
			c-1.56,0-2.983-1.049-3.39-2.632c-0.48-1.875,0.648-3.782,2.523-4.264c26.209-6.727,36.234-31.933,36.335-32.184
			c0.695-1.802,2.722-2.708,4.528-2.007c1.802,0.693,2.705,2.714,2.012,4.521C119.678,85.152,108.787,112.792,78.998,120.436z"/>
	</g>
</g>
<g>
</g>
<g>
</g>
<g>
</g>
<g>
</g>
<g>
</g>
<g>
</g>
<g>
</g>
<g>
</g>
<g>
</g>
<g>
</g>
<g>
</g>
<g>
</g>
<g>
</g>
<g>
</g>
<g>
</g>
</svg>
