<?xml version="1.0" encoding="utf-8"?>
<!-- Generator: Adobe Illustrator 18.1.1, SVG Export Plug-In . SVG Version: 6.00 Build 0)  -->
<svg version="1.1" id="Capa_1" xmlns="http://www.w3.org/2000/svg" xmlns:xlink="http://www.w3.org/1999/xlink" x="0px" y="0px"
	 viewBox="-256 348.3 97.8 97.8" enable-background="new -256 348.3 97.8 97.8" xml:space="preserve">
<g>
	<g>
		<polygon fill="#FF3333" points="-230.3,400.7 -226.4,400.7 -226.4,421.7 -222.8,421.7 -222.8,400.7 -218.8,400.7 -218.8,397.3 
			-230.3,397.3 		"/>
		<path fill="#FF3333" d="M-199.3,403.3c-1.2,0-2.3,0.7-3.4,2v-8h-3.3v24.4h3.3v-1.8c1.1,1.4,2.2,2,3.4,2c1.3,0,2.2-0.7,2.6-2
			c0.2-0.8,0.3-2,0.3-3.7V409c0-1.7-0.1-2.9-0.3-3.7C-197.1,404-198,403.3-199.3,403.3z M-199.7,416.5c0,1.6-0.5,2.5-1.4,2.5
			c-0.5,0-1.1-0.3-1.6-0.8v-11.1c0.6-0.5,1.1-0.8,1.6-0.8c1,0,1.4,0.8,1.4,2.5V416.5z"/>
		<path fill="#FF3333" d="M-212.2,417.4c-0.7,1-1.4,1.5-2.1,1.5c-0.4,0-0.7-0.3-0.8-0.8c0-0.1,0-0.5,0-1.3v-13.4h-3.3v14.4
			c0,1.3,0.1,2.2,0.3,2.7c0.3,0.9,1.1,1.4,2.1,1.4c1.2,0,2.5-0.7,3.8-2.2v2h3.3v-18.2h-3.3V417.4z"/>
		<path fill="#FF3333" d="M-209.3,386.7c1.1,0,1.6-0.9,1.6-2.6v-7.7c0-1.7-0.5-2.5-1.6-2.5c-1.1,0-1.6,0.8-1.6,2.5v7.7
			C-210.9,385.9-210.4,386.7-209.3,386.7z"/>
		<path fill="#FF3333" d="M-207.1,348.3c-27,0-48.9,21.9-48.9,48.9c0,27,21.9,48.9,48.9,48.9s48.9-21.9,48.9-48.9
			S-180.1,348.3-207.1,348.3z M-201.7,371.1h3.3v13.5c0,0.8,0,1.2,0,1.3c0.1,0.5,0.3,0.8,0.8,0.8c0.7,0,1.4-0.5,2.1-1.6v-14h3.3
			v18.4h-3.3v-2c-1.3,1.5-2.6,2.3-3.8,2.3c-1.1,0-1.8-0.4-2.1-1.4c-0.2-0.6-0.3-1.4-0.3-2.7V371.1L-201.7,371.1z M-214.3,377.1
			c0-2,0.3-3.4,1-4.3c0.9-1.3,2.2-1.9,3.9-1.9c1.7,0,3,0.6,3.9,1.9c0.7,0.9,1,2.4,1,4.3v6.4c0,2-0.3,3.4-1,4.3
			c-0.9,1.3-2.2,1.9-3.9,1.9c-1.7,0-3-0.6-3.9-1.9c-0.7-0.9-1-2.4-1-4.3V377.1z M-223.2,364.8l2.6,9.7l2.5-9.7h3.7l-4.4,14.7v10
			h-3.7v-10c-0.3-1.8-1.1-4.4-2.3-7.8c-0.8-2.3-1.6-4.6-2.4-6.9C-227.1,364.8-223.2,364.8-223.2,364.8z M-180.8,423.3
			c-0.7,2.9-3,5-5.9,5.4c-6.8,0.8-13.6,0.8-20.4,0.8c-6.8,0-13.7,0-20.4-0.8c-2.9-0.3-5.2-2.5-5.9-5.4c-1-4.1-1-8.6-1-12.9
			c0-4.3,0-8.8,1-12.9c0.7-2.9,3-5,5.9-5.4c6.8-0.8,13.6-0.8,20.4-0.8c6.8,0,13.7,0,20.4,0.8c2.9,0.3,5.2,2.5,5.9,5.4
			c0.9,4.1,0.9,8.6,0.9,12.9C-179.9,414.7-179.9,419.2-180.8,423.3z"/>
		<path fill="#FF3333" d="M-188.8,403.3c-1.7,0-3,0.6-3.9,1.9c-0.7,0.9-1,2.3-1,4.3v6.4c0,1.9,0.4,3.4,1.1,4.3c1,1.2,2.3,1.9,4,1.9
			c1.7,0,3.1-0.7,4-2c0.4-0.6,0.7-1.2,0.8-2c0-0.3,0.1-1.1,0.1-2.1v-0.5h-3.4c0,1.3,0,2.1-0.1,2.2c-0.2,0.9-0.7,1.3-1.5,1.3
			c-1.1,0-1.7-0.8-1.7-2.5v-3.2h6.6v-3.8c0-1.9-0.3-3.4-1-4.3C-185.9,403.9-187.2,403.3-188.8,403.3z M-187.2,410.5h-3.3v-1.7
			c0-1.7,0.6-2.5,1.7-2.5c1.1,0,1.6,0.8,1.6,2.5V410.5z"/>
	</g>
</g>
</svg>
