<?xml version="1.0" encoding="utf-8"?>
<!-- Generator: Adobe Illustrator 15.1.0, SVG Export Plug-In . SVG Version: 6.00 Build 0)  -->
<!DOCTYPE svg PUBLIC "-//W3C//DTD SVG 1.1//EN" "http://www.w3.org/Graphics/SVG/1.1/DTD/svg11.dtd">
<svg version="1.1" id="Calque_1" xmlns="http://www.w3.org/2000/svg" xmlns:xlink="http://www.w3.org/1999/xlink" x="0px" y="0px"
	 width="34.871px" height="13.32px" viewBox="0 0 34.871 13.32" enable-background="new 0 0 34.871 13.32" xml:space="preserve">
<g>
	<path d="M26.789,4.466h0.469L27.18,4.766h-1.175l0.078-0.287h0.248c0.222-0.157,0.487-0.455,0.561-0.641
		c0.053-0.131,0.04-0.248-0.038-0.353c-0.065,0.022-0.132,0.052-0.185,0.091c-0.066,0.05-0.131,0.104-0.195,0.17l-0.221-0.261
		c0.115-0.104,0.195-0.162,0.312-0.222c0.131-0.065,0.274-0.104,0.419-0.118c0.235,0.144,0.354,0.405,0.287,0.68
		C27.22,4.047,26.998,4.296,26.789,4.466z"/>
	<path d="M28.318,3.499c-0.21,0.104-0.288,0.209-0.365,0.379c0.043-0.039,0.135-0.084,0.209-0.117
		c0.058-0.026,0.168-0.062,0.246-0.083c0.276,0.2,0.334,0.49,0.236,0.724c-0.102,0.231-0.393,0.392-0.76,0.423
		c-0.26-0.201-0.396-0.58-0.285-0.972c0.092-0.327,0.404-0.667,1.005-0.72l0.149,0.27C28.604,3.407,28.462,3.428,28.318,3.499z
		 M27.925,4.219c0,0.058,0.015,0.104,0.027,0.144c0.014,0.039,0.051,0.117,0.077,0.144c0.093-0.025,0.21-0.072,0.263-0.156
		c0.063-0.105,0.063-0.224-0.015-0.327c-0.063,0.013-0.116,0.044-0.17,0.071C28.044,4.126,27.992,4.158,27.925,4.219z"/>
	<path d="M29.86,3.395V3.198h0.433l-0.301,1.15c-0.066,0.248-0.111,0.497-0.224,0.627c-0.122,0.146-0.261,0.183-0.418,0.209
		l-0.183-0.301c0.104,0,0.183-0.025,0.263-0.092c0.077-0.064,0.104-0.144,0.13-0.248L29.86,3.395z"/>
	<path d="M31.69,4.126c-0.099,0.379-0.261,0.693-0.731,0.693c-0.371,0-0.562-0.317-0.457-0.706l0.196-0.719V3.198h0.421
		l-0.203,0.758c-0.074,0.285-0.104,0.496,0.121,0.496c0.227,0,0.262-0.229,0.332-0.496l0.151-0.562V3.198h0.416L31.69,4.126z"/>
	<path d="M32.384,4.766h-0.432l0.365-1.372V3.198h0.434l-0.367,1.373V4.766z"/>
	<path d="M33.182,4.766h-0.404l0.365-1.372V3.198h0.483c0,0.196,0,0.327,0.039,0.536c0.053,0.273,0.104,0.405,0.184,0.562l0.222-0.9
		V3.198h0.405l-0.419,1.568h-0.339c-0.079-0.104-0.17-0.287-0.235-0.457s-0.104-0.34-0.126-0.511L33.182,4.57V4.766z"/>
</g>
<g>
	<path d="M26.722,6.868c-0.072,0.013-0.131,0.026-0.194,0.052c-0.059,0.024-0.118,0.047-0.17,0.078l-0.196-0.195l0.209-0.771h0.877
		l-0.093,0.327h-0.536l-0.104,0.3c0.131-0.064,0.262-0.099,0.379-0.104c0.21,0.144,0.32,0.443,0.17,0.706
		c-0.111,0.195-0.337,0.328-0.641,0.379l-0.078,0.014l-0.039-0.026c-0.034-0.021-0.104-0.078-0.157-0.144
		c-0.052-0.065-0.104-0.131-0.144-0.223l0.287-0.171c0.025,0.054,0.053,0.101,0.078,0.14s0.059,0.078,0.092,0.109
		c0.104-0.039,0.209-0.092,0.273-0.184C26.802,7.064,26.789,6.959,26.722,6.868z"/>
	<path d="M28.468,6.946l-0.11-0.11c-0.039-0.04-0.103-0.124-0.136-0.19c-0.026-0.052-0.047-0.118-0.061-0.223
		c0.092-0.183,0.209-0.253,0.348-0.323c0.191-0.1,0.46-0.122,0.697-0.068l-0.104,0.34c-0.089-0.022-0.17-0.039-0.262-0.025
		c-0.104,0.013-0.184,0.057-0.271,0.116c0.011,0.04,0.029,0.071,0.054,0.105c0.024,0.039,0.061,0.07,0.1,0.112l0.092,0.096
		c0.078,0.084,0.141,0.199,0.156,0.236c0.02,0.045,0.045,0.116,0.052,0.209c-0.063,0.117-0.166,0.265-0.364,0.353
		c-0.263,0.118-0.576,0.076-0.744-0.065c0,0,0.155-0.337,0.155-0.34c0.075,0.076,0.183,0.146,0.3,0.146
		c0.118,0,0.213-0.057,0.262-0.118c-0.008-0.039-0.018-0.062-0.043-0.104C28.566,7.057,28.518,6.996,28.468,6.946z"/>
	<path d="M30.175,7.26l-0.092,0.341h-0.916l0.367-1.373V6.031h0.936l-0.086,0.327h-0.522l-0.075,0.287h0.506l-0.09,0.327h-0.506
		L29.621,7.26H30.175z"/>
	<path d="M30.925,7.108l-0.077,0.295V7.6h-0.425l0.365-1.373V6.031h0.902l0.025,0.047c0.109,0.201,0.129,0.426,0.07,0.594
		c-0.088,0.253-0.341,0.427-0.75,0.435L30.925,7.108z M31.464,6.402L31.447,6.35h-0.318L31.003,6.79h0.096
		c0.13,0,0.227-0.042,0.285-0.099C31.475,6.606,31.49,6.491,31.464,6.402z"/>
	<path d="M32.391,7.403V7.6h-0.425l0.326-1.235h-0.398l0.094-0.334h1.143l-0.092,0.334h-0.371L32.391,7.403z"/>
	<path d="M33.091,7.194c0.109,0,0.188,0.104,0.17,0.235c-0.02,0.132-0.118,0.21-0.262,0.21c-0.117,0-0.188-0.104-0.17-0.235
		C32.848,7.272,32.946,7.194,33.091,7.194z"/>
</g>
<g>
	<path d="M26.005,9.219l0.068-0.268h0.672l-0.066,0.268H26.005z"/>
</g>
<g>
	<path d="M27.019,10.6c0.057,0.094,0.104,0.216,0.068,0.345c-0.03,0.115-0.108,0.181-0.151,0.206l-0.042,0.023l0.025,0.037
		c0.067,0.096,0.1,0.234,0.031,0.359c-0.109,0.201-0.348,0.247-0.6,0.247h-0.348l0.293-1.113v-0.157h0.689L27.019,10.6z
		 M26.649,11.3l-0.017-0.021h-0.198l-0.073,0.275h0.062c0.084,0,0.176-0.005,0.234-0.077C26.701,11.425,26.686,11.345,26.649,11.3z
		 M26.811,10.83L26.8,10.799h-0.238l-0.064,0.251h0.062c0.095,0,0.158-0.014,0.216-0.062C26.814,10.953,26.83,10.888,26.811,10.83z"
		/>
	<path d="M27.833,10.799c0.211,0.124,0.324,0.345,0.271,0.596c-0.044,0.207-0.261,0.407-0.637,0.447
		c-0.209-0.125-0.323-0.344-0.271-0.594C27.24,11.04,27.458,10.84,27.833,10.799z M27.833,11.353
		c0.033-0.138-0.021-0.241-0.092-0.314c-0.115,0.031-0.242,0.115-0.272,0.251c-0.032,0.137,0.021,0.24,0.094,0.313
		C27.678,11.571,27.803,11.487,27.833,11.353z"/>
	<path d="M28.376,11.353c0.019-0.072,0.031-0.15,0.021-0.221c-0.01-0.072-0.052-0.137-0.113-0.188l0.219-0.172
		c0.052,0.036,0.09,0.099,0.104,0.131c0.021,0.045,0.043,0.114,0.043,0.177c0.053-0.125,0.115-0.182,0.167-0.219
		c0.072-0.053,0.132-0.067,0.22-0.067h0.059l-0.069,0.286c-0.104,0.011-0.155,0.042-0.229,0.114
		c-0.062,0.062-0.115,0.155-0.131,0.188l-0.025,0.054l-0.084,0.365h-0.291L28.376,11.353z"/>
	<path d="M29.914,11.566c0.01,0.046,0.041,0.099,0.076,0.131l-0.218,0.166c-0.045-0.031-0.083-0.088-0.101-0.125
		c-0.017-0.038-0.03-0.083-0.03-0.156l-0.396,0.271c-0.221-0.251-0.24-0.616-0.031-0.836c0.156-0.164,0.354-0.188,0.543-0.188h0.046
		l0.079-0.312V10.36h0.312l-0.267,1.021C29.916,11.431,29.903,11.513,29.914,11.566z M29.679,11.3l0.061-0.233
		c-0.107-0.006-0.212,0.015-0.296,0.088s-0.126,0.229-0.067,0.354L29.679,11.3z"/>
	<path d="M30.947,11.289c-0.111,0.125-0.271,0.157-0.447,0.161c0.01,0.059,0.039,0.116,0.072,0.152
		c0.094-0.021,0.156-0.053,0.254-0.125l0.117,0.193c-0.061,0.041-0.133,0.075-0.227,0.112c-0.077,0.029-0.193,0.056-0.303,0.058
		c-0.146-0.166-0.271-0.459-0.146-0.72c0.114-0.24,0.386-0.365,0.752-0.303C31.083,11.018,31.031,11.194,30.947,11.289z
		 M30.5,11.258c0.094,0,0.166-0.024,0.207-0.052c0.043-0.026,0.104-0.084,0.104-0.178c-0.067-0.005-0.136,0.01-0.187,0.041
		C30.572,11.102,30.509,11.175,30.5,11.258z"/>
	<path d="M31.412,11.018c0.154-0.148,0.344-0.188,0.553-0.188h0.262l-0.143,0.553c-0.015,0.058-0.029,0.108-0.015,0.179
		c0.009,0.042,0.036,0.095,0.083,0.137l-0.219,0.149c-0.062-0.046-0.088-0.093-0.105-0.131c-0.016-0.036-0.031-0.083-0.031-0.142
		l-0.416,0.278C31.203,11.591,31.186,11.237,31.412,11.018z M31.833,11.31l0.067-0.25c-0.146-0.011-0.25,0.052-0.312,0.135
		c-0.072,0.097-0.094,0.22-0.063,0.324L31.833,11.31z"/>
	<path d="M33.001,11.854c-0.049-0.032-0.084-0.089-0.101-0.126c-0.024-0.052-0.024-0.109-0.021-0.156l-0.387,0.282
		c-0.084-0.063-0.16-0.168-0.178-0.282c-0.016-0.094-0.004-0.169,0.023-0.282l0.08-0.303V10.84h0.313l-0.132,0.48
		c-0.014,0.042-0.025,0.084-0.025,0.121c0,0.024,0.006,0.046,0.018,0.066l0.308-0.24l0.125-0.429h0.271l-0.129,0.46
		c-0.037,0.137-0.049,0.198-0.037,0.262c0.006,0.029,0.031,0.083,0.078,0.137L33.001,11.854z"/>
	<path d="M33.601,11.175l-0.125-0.188c0.062-0.058,0.125-0.104,0.188-0.137c0.053-0.026,0.109-0.047,0.176-0.062l0.14,0.319
		c0.048-0.075,0.097-0.131,0.151-0.186c0.062-0.058,0.16-0.113,0.244-0.135c0.084,0.052,0.155,0.135,0.203,0.22l-0.188,0.156
		c-0.015-0.031-0.038-0.068-0.066-0.095c-0.043,0.025-0.079,0.053-0.122,0.095c-0.041,0.042-0.076,0.09-0.106,0.136l0.125,0.262
		c0.048-0.021,0.093-0.062,0.125-0.11l0.125,0.193c-0.052,0.062-0.125,0.114-0.185,0.146c-0.051,0.028-0.119,0.058-0.213,0.073
		l-0.143-0.33c-0.057,0.083-0.108,0.15-0.172,0.205c-0.053,0.046-0.125,0.094-0.219,0.125c-0.053-0.027-0.1-0.062-0.136-0.104
		c-0.03-0.034-0.073-0.087-0.104-0.135l0.188-0.157c0.03,0.06,0.052,0.084,0.083,0.115c0.074-0.043,0.115-0.091,0.146-0.132
		c0.031-0.042,0.061-0.077,0.084-0.13l-0.104-0.226C33.658,11.116,33.632,11.137,33.601,11.175z"/>
</g>
<path d="M4.583,12.025c0.042,0.091,0.091,0.189,0.149,0.302c0.058,0.109,0.112,0.208,0.162,0.298
	c-0.043-0.01-0.087-0.02-0.132-0.027c-0.159-0.032-0.327-0.06-0.506-0.081c-0.094-0.013-0.188-0.029-0.278-0.052
	c-0.128-0.031-0.252-0.072-0.371-0.129c-0.007-0.005-0.013-0.01-0.02-0.016c-0.03,0.021-0.073,0.023-0.13,0.007
	c-0.018-0.004-0.036-0.011-0.056-0.02c-0.051-0.021-0.099-0.037-0.145-0.052c-0.032-0.009-0.063-0.016-0.093-0.021
	c-0.035-0.044-0.069-0.088-0.104-0.132c-0.167-0.472-0.292-0.944-0.392-1.423c-0.1-0.479-0.176-0.959-0.243-1.44
	c-0.019-0.014-0.04-0.028-0.061-0.037C2.324,9.185,2.284,9.177,2.24,9.175C2.171,9.174,2.106,9.179,2.047,9.195
	c-0.169,0.844-0.299,1.688-0.315,2.526c-0.01,0.012-0.02,0.023-0.03,0.034c-0.194-0.07-0.39-0.148-0.586-0.235
	c-0.095-0.04-0.188-0.083-0.284-0.129c-0.062-0.029-0.123-0.059-0.184-0.086c-0.224-0.109-0.44-0.211-0.648-0.31
	c0.061-0.498,0.154-1.017,0.269-1.552C0.383,8.907,0.511,8.39,0.634,7.892C0.928,6.703,1.217,5.521,1.31,4.36
	c0.023-0.266,0.037-0.522,0.037-0.771C1.348,3.34,1.339,3.087,1.315,2.826c0.59,0.275,1.151,0.521,1.696,0.742
	c0.109,0.046,0.222,0.096,0.338,0.15C3.404,3.743,3.46,3.77,3.518,3.796C3.695,3.88,3.866,3.985,4.031,4.114
	C4.196,4.242,4.35,4.4,4.487,4.591c0.136,0.191,0.247,0.427,0.327,0.707C4.962,5.841,4.986,6.349,4.906,6.83
	c-0.08,0.481-0.232,0.914-0.449,1.301C4.212,8.49,3.945,8.795,3.656,9.039c0.006,0.109,0.015,0.217,0.023,0.325
	C3.888,10.276,4.162,11.166,4.583,12.025z M3.234,6.611c0.035-0.1,0.059-0.208,0.067-0.325c0.01-0.116,0-0.241-0.027-0.378
	C3.228,5.802,3.172,5.732,3.108,5.701c-0.01-0.005-0.021-0.009-0.032-0.012C2.998,5.668,2.913,5.643,2.82,5.613
	c-0.06,0.266-0.12,0.55-0.179,0.85c-0.058,0.302-0.119,0.6-0.178,0.896C2.55,7.342,2.631,7.313,2.706,7.272
	c0.076-0.04,0.151-0.089,0.225-0.146C2.986,7.05,3.042,6.971,3.097,6.887C3.152,6.804,3.199,6.711,3.234,6.611 M4.096,11.348
	c0.007-0.012,0.014-0.021,0.022-0.03c-0.011,0.001-0.022,0.002-0.032,0.003C4.089,11.33,4.092,11.338,4.096,11.348 M3.152,10.809
	c0.011,0,0.021,0,0.032-0.001c-0.003-0.004-0.006-0.011-0.009-0.015c-0.008-0.003-0.016-0.006-0.024-0.008
	C3.152,10.793,3.152,10.802,3.152,10.809 M4.256,11.591c0.008-0.002,0.016-0.004,0.023-0.006c-0.003-0.004-0.006-0.008-0.01-0.012
	c-0.008-0.002-0.016-0.005-0.024-0.007C4.25,11.575,4.253,11.583,4.256,11.591"/>
<path d="M8.312,6.467C8.36,6.47,8.408,6.474,8.457,6.477c0.014,0.237,0.008,0.478-0.014,0.717C8.42,7.435,8.387,7.668,8.345,7.898
	C8.208,7.893,8.073,7.881,7.939,7.863C7.906,7.859,7.873,7.854,7.84,7.85C7.823,7.847,7.805,7.845,7.788,7.842
	c-0.149-0.021-0.3-0.032-0.454-0.035C7.305,7.979,7.275,8.149,7.249,8.319c-0.028,0.172-0.065,0.344-0.11,0.517
	C7.142,8.856,7.15,8.868,7.163,8.874c0.006,0.002,0.014,0.004,0.021,0.005C7.192,8.88,7.201,8.88,7.209,8.88
	c0.019-0.001,0.035-0.002,0.052-0.002C7.28,8.88,7.29,8.889,7.295,8.906c0.02-0.018,0.045-0.023,0.076-0.019
	C7.415,8.896,7.457,8.902,7.5,8.907c0.086,0.012,0.173,0.018,0.26,0.02c0.087,0.001,0.173,0.006,0.26,0.016
	c0.045,0.004,0.09,0.009,0.136,0.015C8.103,9.182,8.049,9.406,7.999,9.63c-0.049,0.225-0.102,0.453-0.152,0.687
	c-0.117-0.003-0.233-0.009-0.349-0.021c-0.056-0.004-0.111-0.009-0.167-0.015c-0.024-0.004-0.049-0.006-0.073-0.009
	c-0.147-0.015-0.295-0.022-0.443-0.023c-0.041,0.175-0.074,0.354-0.101,0.537c-0.026,0.183-0.045,0.355-0.058,0.521
	c0.094,0.006,0.185,0.012,0.27,0.02c0.085,0.007,0.167,0.015,0.244,0.024c0.05,0.005,0.103,0.009,0.158,0.012
	c0.111,0.007,0.23,0.009,0.356,0.006c-0.04,0.265-0.062,0.521-0.066,0.765c-0.004,0.246,0.003,0.497,0.028,0.755
	c-0.176,0.006-0.352,0.005-0.529-0.004c-0.204-0.008-0.409-0.024-0.614-0.052c-0.297-0.038-0.595-0.076-0.895-0.112
	c-0.088-0.013-0.176-0.022-0.264-0.034c-0.013-0.149-0.021-0.302-0.022-0.451c0.056-1.781,0.807-3.585,0.87-5.319
	c0.008-0.3-0.004-0.597-0.043-0.892c0.06,0.007,0.122,0.016,0.183,0.023C7.01,6.221,7.666,6.358,8.312,6.467z M6.002,9.923
	C5.991,9.94,5.996,9.965,6.016,9.995C6.009,9.979,6.006,9.966,6.01,9.953C6.014,9.94,6.011,9.931,6.002,9.923 M6.797,8.278
	c0.005-0.006,0.01-0.012,0.014-0.018C6.803,8.253,6.794,8.244,6.786,8.237C6.783,8.243,6.781,8.249,6.778,8.255
	C6.785,8.263,6.791,8.271,6.797,8.278 M7.301,7.802c0.002-0.007,0.004-0.013,0.007-0.019c-0.006-0.008-0.013-0.016-0.02-0.021
	C7.286,7.767,7.283,7.772,7.281,7.778C7.288,7.786,7.294,7.793,7.301,7.802 M6.573,11.298c0.009-0.007,0.019-0.012,0.027-0.018
	c-0.007,0-0.014-0.001-0.02-0.001C6.577,11.285,6.575,11.291,6.573,11.298"/>
<path d="M10.505,11.444c0.159-0.014,0.314-0.038,0.466-0.071c-0.026,0.234-0.051,0.464-0.071,0.687
	c-0.02,0.222-0.024,0.447-0.006,0.681c-0.37,0.06-0.727,0.114-1.072,0.163c-0.345,0.05-0.704,0.09-1.076,0.118
	c-0.02-0.16-0.031-0.32-0.035-0.481c-0.003-0.528,0.077-1.062,0.178-1.593c0.034-0.181,0.069-0.361,0.106-0.54
	c0.036-0.18,0.075-0.364,0.114-0.556c0.004,0,0.008,0,0.012,0.001C9.185,9.49,9.252,9.108,9.292,8.709
	c0.041-0.397,0.045-0.77,0.011-1.109c0.022,0.003,0.043,0.006,0.064,0.007c0.043,0.004,0.084,0.004,0.124,0
	c0.018-0.002,0.035-0.002,0.053,0C9.587,7.608,9.63,7.619,9.674,7.64c0.016-0.02,0.041-0.029,0.075-0.032
	c0.012-0.001,0.023-0.001,0.035,0c0.023,0.001,0.047,0.006,0.07,0.014c0.12,0.007,0.233,0.01,0.342,0.012
	c0.036,0,0.071,0,0.107,0.003c0.072,0.003,0.143,0.009,0.214,0.018c0.119,1.232-0.307,2.521-0.482,3.812
	c0.008,0.011,0.016,0.02,0.024,0.028C10.197,11.476,10.346,11.458,10.505,11.444z M9.875,10.102c0-0.011,0.001-0.021,0.003-0.03
	c-0.004-0.003-0.008-0.005-0.012-0.007c-0.001,0.012-0.001,0.023-0.003,0.037C9.868,10.102,9.872,10.102,9.875,10.102 M9.175,10.365
	c0.002-0.01,0.005-0.021,0.008-0.03c-0.004,0-0.008-0.001-0.012-0.001c0,0.011-0.002,0.021-0.002,0.031
	C9.171,10.365,9.173,10.365,9.175,10.365 M8.843,12.153c0.001-0.01,0.002-0.021,0.003-0.031c-0.004,0.001-0.008,0.001-0.012,0.001
	c0.001,0.01,0.001,0.021,0.002,0.03C8.839,12.153,8.841,12.153,8.843,12.153"/>
<path d="M14.467,10.991c0.004,0.349,0.037,0.694,0.146,1.034c-0.325,0.076-0.648,0.153-0.968,0.229
	c-0.082-0.202-0.134-0.409-0.165-0.619c-0.051,0.014-0.103,0.021-0.154,0.031c-0.09,0.017-0.179,0.028-0.269,0.035
	c-0.11,0.01-0.215,0.022-0.315,0.039c-0.03,0.006-0.058,0.011-0.087,0.017c-0.059,0.12-0.105,0.244-0.133,0.372
	c-0.029,0.127-0.046,0.257-0.048,0.387c-0.103,0.026-0.208,0.052-0.314,0.071c-0.072,0.014-0.146,0.025-0.221,0.036
	c-0.092,0.015-0.184,0.027-0.274,0.044c-0.092,0.017-0.183,0.034-0.272,0.055c0.003-0.55,0.248-1.104,0.535-1.651
	c0.288-0.548,0.639-1.093,0.891-1.62c-0.005-0.002-0.01-0.003-0.015-0.005C12.89,9.262,12.958,9.082,13,8.908
	c0.043-0.176,0.076-0.346,0.097-0.51c-0.005-0.004-0.01-0.008-0.015-0.011c0.091-0.008,0.182-0.013,0.272-0.016
	c0.09-0.004,0.179-0.005,0.269-0.004c0.07,0,0.143-0.002,0.216-0.004c0.111-0.004,0.225-0.012,0.343-0.021
	c0.246,0.448,0.307,0.891,0.315,1.319C14.504,10.094,14.46,10.538,14.467,10.991z M13.286,10.859
	c0.057-0.008,0.114-0.018,0.17-0.024c0.001-0.112,0.01-0.227,0.025-0.341s0.015-0.224,0-0.326c-0.006-0.002-0.01-0.004-0.012-0.007
	c-0.111,0.219-0.229,0.44-0.34,0.665c-0.001,0.014-0.004,0.03-0.005,0.044C13.184,10.869,13.238,10.865,13.286,10.859
	 M13.491,10.117c-0.004,0.008-0.008,0.017-0.012,0.024C13.489,10.133,13.493,10.124,13.491,10.117 M13.827,11.906
	c-0.001-0.007-0.002-0.014-0.003-0.021c-0.003,0.003-0.007,0.005-0.01,0.009c0.003,0.006,0.006,0.013,0.009,0.02
	C13.825,11.91,13.826,11.909,13.827,11.906 M12.319,11.832c0.004-0.002,0.007-0.004,0.01-0.007
	c-0.002-0.007-0.004-0.016-0.006-0.021c-0.001,0.003-0.003,0.004-0.005,0.007C12.318,11.816,12.319,11.824,12.319,11.832
	 M12.851,9.448c0-0.007,0-0.016,0-0.021c-0.003,0-0.006,0.001-0.01,0.001c0.001,0.007,0.001,0.015,0.001,0.021
	C12.845,9.449,12.848,9.448,12.851,9.448 M13.551,8.398c-0.004-0.008-0.007-0.016-0.01-0.021c-0.002,0.002-0.005,0.004-0.008,0.006
	c0.004,0.006,0.008,0.011,0.012,0.017C13.547,8.398,13.549,8.398,13.551,8.398 M13.176,8.395c0.003,0.008,0.006,0.015,0.009,0.021
	c0.004,0,0.007,0,0.01,0c-0.003-0.007-0.006-0.014-0.01-0.021C13.183,8.395,13.18,8.395,13.176,8.395"/>
<path d="M17.452,9.429c0.01,0.054,0.013,0.105,0.009,0.16c-0.003,0.054-0.011,0.106-0.023,0.161s-0.02,0.108-0.026,0.162
	c-0.005,0.005-0.01,0.011-0.014,0.017c-0.129,0.009-0.252,0.016-0.368,0.021c-0.115,0.006-0.238,0.015-0.367,0.022
	c0.003-0.03,0.005-0.062,0.005-0.098c0-0.032-0.003-0.064-0.01-0.095c-0.006-0.03-0.019-0.056-0.037-0.079
	c-0.017-0.022-0.043-0.044-0.078-0.059c-0.096,0.003-0.166,0.046-0.215,0.129c0.002,0.001,0.006,0.002,0.009,0.004
	c-0.015,0.01-0.021,0.021-0.021,0.04c0,0.016-0.001,0.032-0.004,0.047c-0.021,0.064-0.04,0.137-0.056,0.215
	c-0.016,0.08-0.03,0.152-0.04,0.216c-0.005,0-0.009,0.001-0.014,0.001c-0.003,0.051-0.012,0.101-0.027,0.151
	c-0.015,0.053-0.031,0.107-0.047,0.163c-0.016,0.057-0.029,0.114-0.039,0.174c-0.008,0.059-0.007,0.117,0.006,0.174
	c0.018,0.035,0.048,0.056,0.088,0.057c0.019,0.002,0.037,0.002,0.055-0.001c0.022-0.002,0.043-0.008,0.065-0.016
	c0.044-0.024,0.079-0.055,0.101-0.088c0.023-0.034,0.041-0.071,0.055-0.111c0.014-0.039,0.026-0.079,0.035-0.123
	c0.009-0.041,0.021-0.08,0.034-0.118c0.128-0.025,0.258-0.046,0.389-0.062c0.131-0.016,0.26-0.028,0.387-0.037
	c-0.022,0.112-0.047,0.228-0.073,0.345c-0.026,0.114-0.061,0.229-0.1,0.34c-0.041,0.111-0.093,0.216-0.157,0.312
	c-0.064,0.1-0.149,0.184-0.259,0.254c-0.066,0.042-0.141,0.077-0.224,0.107c-0.071,0.024-0.145,0.045-0.221,0.058
	c-0.013,0.003-0.027,0.005-0.04,0.006c-0.092,0.015-0.187,0.018-0.285,0.011c-0.099-0.009-0.193-0.026-0.282-0.059
	c-0.119-0.037-0.212-0.096-0.274-0.175c-0.062-0.08-0.102-0.168-0.12-0.266c-0.017-0.098-0.018-0.199-0.003-0.307
	c0.015-0.106,0.035-0.207,0.057-0.3c0.045-0.212,0.105-0.419,0.163-0.622c0.057-0.204,0.105-0.411,0.125-0.62
	c0.02-0.095,0.051-0.181,0.093-0.259c0.043-0.078,0.093-0.146,0.154-0.204c0.061-0.057,0.129-0.104,0.208-0.14
	c0.08-0.036,0.165-0.06,0.257-0.069c0.049-0.005,0.099-0.01,0.149-0.013c0.021-0.002,0.043-0.002,0.065-0.002
	c0.03,0,0.062,0.003,0.093,0.006c0.012,0.009,0.023,0.017,0.034,0.025c0.002-0.009,0.005-0.017,0.008-0.024
	c0.133,0.014,0.271,0.058,0.405,0.132c0.132,0.074,0.236,0.164,0.306,0.272C17.419,9.322,17.442,9.376,17.452,9.429z M16.081,9.952
	c0.009-0.003,0.018-0.007,0.027-0.01c-0.009,0-0.018,0.001-0.027,0.002C16.081,9.947,16.081,9.949,16.081,9.952"/>
<path d="M19.196,9.273c0.259,0.041,0.519,0.09,0.772,0.146c0.013,0.283-0.053,0.577-0.123,0.877c-0.1,0.423-0.211,0.855-0.062,1.281
	c-0.242-0.008-0.479-0.009-0.715-0.004c-0.002-0.003-0.004-0.007-0.006-0.01c-0.012-0.003-0.016-0.001-0.018,0
	c-0.004-0.002-0.008-0.005-0.015-0.009c-0.003-0.001-0.006-0.002-0.01-0.003c0,0.006,0.001,0.012,0.002,0.02
	c-0.003-0.019-0.005-0.038-0.006-0.057c-0.005,0-0.009,0.001-0.015,0.001c0-0.024-0.004-0.05-0.015-0.075
	c-0.011-0.026-0.012-0.051-0.001-0.072c0.003,0.002,0.006,0.003,0.01,0.004c-0.007-0.011-0.015-0.021-0.021-0.033
	c-0.021-0.188-0.004-0.382,0.028-0.572c-0.053-0.009-0.106-0.014-0.162-0.015c-0.012-0.001-0.02-0.001-0.027-0.001
	c-0.064,0-0.131,0.002-0.193,0.005c-0.029,0.135-0.051,0.271-0.053,0.413c-0.001,0.144,0.01,0.285,0.044,0.429
	c-0.075,0.001-0.149,0.004-0.223,0.009c-0.036,0.003-0.072,0.006-0.106,0.009c-0.107,0.012-0.216,0.024-0.322,0.038
	c-0.008-0.005-0.017-0.008-0.021-0.007c-0.003,0-0.006,0.001-0.008,0.003c-0.008,0.005-0.015,0.008-0.024,0.01
	c-0.171-0.6,0.139-1.217,0.219-1.804c0.028-0.242,0.021-0.482-0.064-0.713c0.256,0.019,0.514,0.044,0.768,0.077
	c0.066,0.271,0.037,0.555-0.022,0.843c-0.011,0.006-0.017,0.013-0.019,0.02c0,0.007,0,0.015,0.002,0.024
	c0.002,0.009,0.004,0.017,0.006,0.024c0,0.009,0,0.017-0.002,0.025c0.051,0.008,0.102,0.013,0.15,0.017
	c0.051,0.004,0.1,0.01,0.148,0.014c0.021-0.028,0.035-0.062,0.039-0.092c0.005-0.032,0.011-0.064,0.018-0.095
	c0.005-0.046,0.014-0.087,0.023-0.125c-0.002-0.004-0.002-0.008-0.004-0.013c0.004,0,0.008,0.001,0.014,0.002
	c0.003-0.03,0.003-0.06,0.001-0.088c-0.003-0.028,0.004-0.057,0.019-0.083c-0.004-0.001-0.008-0.002-0.012-0.002
	c0.008-0.001,0.012-0.005,0.012-0.012c-0.002-0.009-0.002-0.015-0.004-0.021c0-0.008-0.002-0.016-0.002-0.021
	c0.001-0.009,0.006-0.016,0.012-0.021c-0.004-0.001-0.008-0.001-0.013-0.002c0.007-0.024,0.015-0.05,0.019-0.075
	c-0.002-0.001-0.004-0.001-0.008-0.001c-0.002-0.032,0-0.062,0.006-0.094s0-0.062-0.016-0.09c0.004-0.016,0.004-0.029,0.002-0.041
	C19.199,9.304,19.197,9.29,19.196,9.273z M18.522,9.444c-0.002-0.004-0.003-0.01-0.004-0.014c-0.007,0.002-0.013,0.007-0.019,0.009
	C18.507,9.441,18.515,9.443,18.522,9.444 M18.819,9.364c0.001,0.002,0.001,0.004,0.002,0.006c0.005-0.001,0.011-0.002,0.017-0.004
	c-0.004-0.003-0.006-0.005-0.008-0.008C18.826,9.36,18.822,9.361,18.819,9.364 M17.877,11.112c0.004-0.002,0.008-0.003,0.012-0.004
	c-0.002-0.003-0.004-0.005-0.006-0.007c-0.002,0.002-0.004,0.005-0.006,0.007C17.877,11.11,17.877,11.111,17.877,11.112"/>
<g>
	<path d="M19.009,10.947c0.005,0.004,0.003,0.007-0.004,0.012C19.007,10.955,19.007,10.952,19.009,10.947z"/>
</g>
<path d="M21.826,10.188c0.026,0.015,0.055,0.028,0.082,0.046c0,0.062-0.006,0.126-0.016,0.187c-0.012,0.062-0.023,0.121-0.038,0.179
	c-0.078-0.039-0.155-0.078-0.233-0.117c-0.021-0.01-0.039-0.021-0.06-0.029c-0.009-0.005-0.021-0.009-0.03-0.014
	c-0.087-0.042-0.176-0.079-0.266-0.112c-0.01,0.047-0.016,0.094-0.021,0.143s-0.016,0.095-0.029,0.142
	c0.005,0.007,0.01,0.012,0.018,0.016c0.004,0.004,0.008,0.005,0.014,0.007c0.004,0.003,0.01,0.004,0.014,0.006
	c0.013,0.003,0.021,0.006,0.029,0.009c0.012,0.005,0.019,0.01,0.022,0.017c0.011-0.001,0.024,0.002,0.043,0.009
	c0.024,0.013,0.051,0.023,0.076,0.034c0.051,0.022,0.101,0.043,0.151,0.064c0.049,0.021,0.1,0.043,0.149,0.066
	c0.026,0.014,0.054,0.026,0.08,0.041c-0.013,0.058-0.026,0.113-0.035,0.174c-0.011,0.058-0.021,0.115-0.03,0.178
	c-0.07-0.028-0.141-0.058-0.211-0.085c-0.033-0.014-0.065-0.026-0.101-0.038c-0.015-0.006-0.028-0.013-0.042-0.019
	c-0.089-0.032-0.178-0.062-0.264-0.087c-0.01,0.05-0.02,0.1-0.022,0.151c-0.005,0.053-0.007,0.103-0.007,0.15
	c0.059,0.016,0.111,0.031,0.163,0.048c0.052,0.016,0.102,0.033,0.149,0.05c0.031,0.011,0.063,0.021,0.098,0.033
	c0.07,0.022,0.144,0.048,0.224,0.074c-0.006,0.067-0.005,0.135,0.002,0.2c0.009,0.065,0.019,0.132,0.032,0.2
	c-0.119-0.03-0.236-0.059-0.352-0.088c-0.133-0.032-0.262-0.062-0.389-0.094c-0.186-0.045-0.363-0.081-0.544-0.111
	c-0.053-0.009-0.104-0.017-0.155-0.023c-0.004-0.047-0.007-0.094-0.007-0.14c0.048-0.547,0.255-1.085,0.212-1.585
	c-0.01-0.088-0.027-0.173-0.052-0.257c0.039,0.011,0.079,0.021,0.118,0.033C21.039,9.795,21.449,9.975,21.826,10.188z
	 M20.632,10.785c-0.004,0.004,0,0.012,0.014,0.024c-0.006-0.005-0.007-0.012-0.007-0.016C20.64,10.792,20.639,10.789,20.632,10.785
	 M20.978,10.373c0.003-0.002,0.005-0.003,0.007-0.004c-0.005-0.003-0.011-0.007-0.017-0.011c-0.002,0.001-0.002,0.003-0.004,0.004
	C20.97,10.365,20.974,10.369,20.978,10.373 M21.246,10.318c0.002-0.001,0.002-0.003,0.004-0.004
	c-0.004-0.004-0.011-0.007-0.015-0.012c-0.001,0.001-0.002,0.004-0.003,0.005C21.236,10.311,21.24,10.314,21.246,10.318
	 M21.05,11.288c0.005,0,0.01-0.001,0.016-0.001c-0.004-0.001-0.009-0.002-0.012-0.004C21.052,11.285,21.05,11.286,21.05,11.288"/>
<polygon points="19.848,0.431 19.398,2.351 21.263,1.791 19.97,3.259 21.878,3.719 20.019,4.386 21.435,5.747 19.527,5.33 
	20.898,8.294 18.564,5.871 18.104,7.813 17.533,5.916 16.175,7.376 16.58,5.458 14.695,6.039 16.053,4.558 14.055,4.058 
	16.004,3.431 14.523,2.084 16.451,2.479 15.881,0.603 17.362,1.961 17.766,0 18.392,1.917 "/>
<g>
	<path fill="#FFFFFF" d="M17.806,3.946l-0.06,0.273l-0.231,0.01l-0.09,0.425l-0.286,0.013l0.094-0.425L16.99,4.253l-0.092,0.425
		L16.615,4.69l0.089-0.425l-0.225,0.01l0.061-0.273l0.228-0.01l0.049-0.243l-0.225,0.01l0.061-0.272l0.228-0.01l0.093-0.425
		l0.286-0.014l-0.096,0.425l0.242-0.011l0.093-0.425l0.285-0.012L17.691,3.44l0.228-0.01l-0.06,0.272l-0.232,0.009l-0.048,0.243
		L17.806,3.946z M17.102,3.736l-0.053,0.243l0.244-0.011l0.052-0.243L17.102,3.736z"/>
	<path fill="#FFFFFF" d="M18.945,3.311c-0.234,0.131-0.32,0.254-0.402,0.454c0.051-0.047,0.152-0.104,0.234-0.146
		c0.064-0.033,0.192-0.081,0.28-0.108c0.325,0.218,0.405,0.548,0.307,0.819c-0.104,0.272-0.431,0.47-0.849,0.524
		c-0.311-0.218-0.485-0.647-0.379-1.103c0.089-0.38,0.433-0.786,1.119-0.875l0.186,0.303C19.271,3.191,19.105,3.223,18.945,3.311z
		 M18.53,4.156c0.003,0.065,0.021,0.12,0.037,0.164s0.065,0.133,0.099,0.161c0.104-0.034,0.235-0.094,0.291-0.193
		c0.069-0.124,0.064-0.258-0.031-0.375c-0.073,0.019-0.133,0.058-0.191,0.089C18.66,4.044,18.602,4.083,18.53,4.156z"/>
</g>
</svg>
