<?xml version="1.0" encoding="utf-8"?>
<!-- Generator: Adobe Illustrator 18.1.1, SVG Export Plug-In . SVG Version: 6.00 Build 0)  -->
<svg version="1.1" id="Calque_1" xmlns="http://www.w3.org/2000/svg" xmlns:xlink="http://www.w3.org/1999/xlink" x="0px" y="0px"
	 viewBox="-257.9 217.7 233.5 128.3" enable-background="new -257.9 217.7 233.5 128.3" xml:space="preserve">
<path d="M-210.8,333.9c0.4,1,0.8,2.1,1.3,3.3c0.5,1.2,1,2.3,1.5,3.2c-0.4-0.1-0.9-0.3-1.4-0.4c-1.6-0.4-3.4-0.9-5.2-1.2
	c-1-0.2-1.9-0.4-2.9-0.7c-1.3-0.4-2.6-1-3.8-1.6c-0.1-0.1-0.1-0.1-0.2-0.2c-0.3,0.2-0.8,0.2-1.4,0c-0.2-0.1-0.4-0.1-0.6-0.2
	c-0.5-0.3-1-0.5-1.5-0.6c-0.3-0.1-0.6-0.2-1-0.3c-0.3-0.5-0.7-1-1-1.5c-1.4-5-2.4-10.1-3.1-15.1c-0.7-5.1-1.2-10.1-1.5-15.2
	c-0.2-0.2-0.4-0.3-0.6-0.4c-0.4-0.2-0.8-0.3-1.3-0.4c-0.7-0.1-1.4-0.1-2,0.1c-2.4,8.7-4.3,17.4-5.1,26.2c-0.1,0.1-0.2,0.2-0.3,0.3
	c-2-0.9-4-1.8-6-2.9c-1-0.5-1.9-1-2.9-1.5c-0.6-0.3-1.2-0.7-1.9-1c-2.3-1.3-4.5-2.5-6.6-3.7c1-5.2,2.3-10.5,3.9-16
	c1.6-5.5,3.3-10.8,4.9-16c3.9-12.2,7.8-24.3,9.5-36.4c0.4-2.8,0.7-5.4,0.9-8c0.2-2.6,0.3-5.3,0.2-8c6,3.3,11.6,6.3,17.2,8.9
	c1.1,0.6,2.2,1.2,3.4,1.8c0.6,0.3,1.1,0.6,1.7,0.9c1.8,1,3.5,2.2,5.1,3.7c1.6,1.4,3.1,3.2,4.4,5.3c1.3,2.1,2.3,4.6,2.9,7.6
	c1.2,5.8,1.1,11.1-0.1,16.1c-1.2,5-3.1,9.4-5.6,13.3c-2.8,3.6-5.8,6.6-9,8.9c0,1.1,0,2.3,0,3.4
	C-216.8,315.2-214.6,324.7-210.8,333.9z M-221.1,276.5c0.4-1,0.8-2.1,0.9-3.3c0.2-1.2,0.2-2.5,0-4c-0.4-1.2-1-1.9-1.6-2.3
	c-0.1-0.1-0.2-0.1-0.3-0.1c-0.8-0.3-1.7-0.6-2.6-1c-0.8,2.7-1.6,5.7-2.5,8.8c-0.8,3.1-1.7,6.2-2.5,9.2c0.9-0.1,1.8-0.4,2.6-0.7
	c0.8-0.4,1.6-0.8,2.4-1.4c0.6-0.8,1.3-1.5,1.9-2.4C-222.1,278.4-221.5,277.5-221.1,276.5 M-215.4,326.5c0.1-0.1,0.2-0.2,0.2-0.3
	c-0.1,0-0.2,0-0.3,0C-215.5,326.3-215.4,326.4-215.4,326.5 M-224.9,320.2c0.1,0,0.2,0,0.3,0c0,0-0.1-0.1-0.1-0.2
	c-0.1,0-0.2-0.1-0.2-0.1C-224.9,320.1-224.9,320.2-224.9,320.2 M-213.9,329.2c0.1,0,0.2,0,0.2,0c0,0-0.1-0.1-0.1-0.1
	c-0.1,0-0.2-0.1-0.3-0.1C-214,329-213.9,329.1-213.9,329.2"/>
<path d="M-168,278.5c0.5,0.1,1,0.1,1.5,0.2c0,2.5-0.3,5-0.7,7.5c-0.4,2.5-0.9,4.9-1.5,7.3c-1.4-0.2-2.8-0.4-4.2-0.6
	c-0.3-0.1-0.7-0.1-1-0.2c-0.2,0-0.4-0.1-0.5-0.1c-1.5-0.3-3.1-0.6-4.7-0.7c-0.4,1.8-0.9,3.5-1.3,5.3c-0.4,1.8-0.9,3.5-1.5,5.3
	c0,0.2,0.1,0.3,0.2,0.4c0.1,0,0.1,0.1,0.2,0.1c0.1,0,0.2,0,0.3,0c0.2,0,0.4,0,0.5,0c0.2,0,0.3,0.1,0.3,0.3c0.2-0.2,0.5-0.2,0.8-0.1
	c0.4,0.1,0.9,0.2,1.3,0.3c0.9,0.2,1.8,0.3,2.7,0.4c0.9,0.1,1.8,0.2,2.7,0.3c0.5,0.1,0.9,0.2,1.4,0.3c-0.7,2.3-1.4,4.6-2.1,6.9
	c-0.7,2.3-1.4,4.6-2.1,7c-1.2-0.1-2.4-0.3-3.6-0.4c-0.6-0.1-1.2-0.2-1.7-0.3c-0.3,0-0.5-0.1-0.8-0.1c-1.5-0.3-3.1-0.4-4.6-0.6
	c-0.5,1.8-1,3.6-1.4,5.5c-0.4,1.9-0.7,3.7-1,5.4c1,0.1,1.9,0.3,2.8,0.4c0.9,0.1,1.7,0.3,2.5,0.4c0.5,0.1,1.1,0.2,1.6,0.2
	c1.2,0.1,2.4,0.3,3.7,0.3c-0.6,2.7-1,5.4-1.2,7.9c-0.2,2.6-0.3,5.2-0.2,7.9c-1.8-0.1-3.7-0.2-5.5-0.4c-2.1-0.2-4.3-0.6-6.4-1
	c-3.1-0.6-6.2-1.2-9.3-1.8c-0.9-0.2-1.8-0.4-2.7-0.5c0-1.6,0-3.2,0.1-4.7c1.8-18.6,10.9-36.9,12.8-54.9c0.3-3.1,0.4-6.2,0.2-9.3
	c0.6,0.1,1.3,0.3,1.9,0.4C-181.4,275-174.6,276.9-168,278.5z M-194.5,313c-0.1,0.2-0.1,0.4,0.1,0.8c-0.1-0.2-0.1-0.3,0-0.4
	C-194.4,313.2-194.4,313.1-194.5,313 M-185.1,296.4c0.1-0.1,0.1-0.1,0.2-0.2c-0.1-0.1-0.2-0.2-0.3-0.3c0,0.1-0.1,0.1-0.1,0.2
	C-185.2,296.2-185.1,296.3-185.1,296.4 M-179.5,291.7c0-0.1,0.1-0.1,0.1-0.2c-0.1-0.1-0.1-0.2-0.2-0.2c0,0.1-0.1,0.1-0.1,0.2
	C-179.6,291.6-179.5,291.7-179.5,291.7 M-189.5,327.7c0.1-0.1,0.2-0.1,0.3-0.2c-0.1,0-0.1,0-0.2,0
	C-189.5,327.6-189.5,327.7-189.5,327.7"/>
<path d="M-149.6,332c1.7,0,3.3-0.2,4.9-0.4c-0.4,2.4-0.9,4.8-1.2,7.1c-0.4,2.3-0.6,4.7-0.5,7.1c-3.9,0.4-7.7,0.7-11.3,1
	c-3.6,0.3-7.4,0.4-11.3,0.5c-0.1-1.7-0.1-3.4,0-5c0.3-5.5,1.5-11,3-16.5c0.5-1.9,1-3.7,1.5-5.6c0.5-1.8,1-3.7,1.6-5.7
	c0,0,0.1,0,0.1,0c0.9-3.7,1.9-7.7,2.6-11.8c0.7-4.1,1-8,0.9-11.6c0.2,0.1,0.4,0.1,0.7,0.1c0.4,0.1,0.9,0.1,1.3,0.1
	c0.2,0,0.4,0,0.5,0c0.4,0.1,0.9,0.2,1.3,0.5c0.2-0.2,0.4-0.3,0.8-0.3c0.1,0,0.2,0,0.4,0c0.2,0,0.5,0.1,0.7,0.2
	c1.2,0.2,2.4,0.3,3.6,0.4c0.4,0,0.7,0.1,1.1,0.1c0.8,0.1,1.5,0.2,2.2,0.3c0.4,13-5,26.1-7.7,39.5c0.1,0.1,0.2,0.2,0.2,0.3
	C-152.9,332.1-151.3,332.1-149.6,332z M-155.2,317.6c0-0.1,0-0.2,0-0.3c0,0-0.1-0.1-0.1-0.1c0,0.1,0,0.3-0.1,0.4
	C-155.3,317.6-155.3,317.6-155.2,317.6 M-162.7,319.8c0-0.1,0.1-0.2,0.1-0.3c0,0-0.1,0-0.1,0C-162.8,319.6-162.8,319.7-162.7,319.8
	C-162.8,319.8-162.8,319.8-162.7,319.8 M-167.5,338.3c0-0.1,0-0.2,0.1-0.3c0,0-0.1,0-0.1,0C-167.5,338.1-167.5,338.2-167.5,338.3
	C-167.5,338.3-167.5,338.3-167.5,338.3"/>
<path d="M-106.9,330.1c-0.2,3.6-0.1,7.3,0.8,10.9c-3.4,0.6-6.9,1.1-10.3,1.7c-0.7-2.2-1.1-4.4-1.3-6.6c-0.5,0.1-1.1,0.2-1.6,0.2
	c-0.9,0.1-1.9,0.2-2.8,0.2c-1.2,0-2.3,0.1-3.3,0.2c-0.3,0-0.6,0.1-0.9,0.1c-0.7,1.2-1.3,2.5-1.7,3.8c-0.4,1.3-0.7,2.6-0.8,4
	c-1.1,0.2-2.2,0.4-3.3,0.5c-0.8,0.1-1.5,0.2-2.3,0.2c-1,0.1-1.9,0.2-2.9,0.3c-1,0.1-1.9,0.2-2.9,0.4c0.4-5.7,3.4-11.3,6.7-16.9
	c3.4-5.5,7.4-11,10.4-16.3c-0.1,0-0.1,0-0.1-0.1c1-1.9,1.9-3.7,2.4-5.5c0.6-1.8,1-3.6,1.4-5.3c0,0-0.1-0.1-0.1-0.1c1,0,1.9,0,2.9,0
	c0.9,0,1.9,0.1,2.8,0.1c0.7,0.1,1.5,0.1,2.3,0.1c1.2,0,2.4,0,3.6,0c2.3,4.9,2.6,9.5,2.4,14C-105.9,320.7-106.6,325.4-106.9,330.1z
	 M-119.1,327.9c0.6,0,1.2-0.1,1.8-0.1c0.1-1.2,0.3-2.4,0.5-3.5c0.2-1.2,0.3-2.3,0.2-3.4c-0.1,0-0.1-0.1-0.1-0.1
	c-1.3,2.2-2.7,4.4-4,6.7c0,0.2-0.1,0.3-0.1,0.5C-120.2,327.9-119.6,327.9-119.1,327.9 M-116.5,320.3c0,0.1-0.1,0.2-0.1,0.2
	C-116.5,320.4-116.5,320.4-116.5,320.3 M-114.2,339.2c0-0.1,0-0.1,0-0.2c0,0-0.1,0-0.1,0.1C-114.3,339.1-114.3,339.2-114.2,339.2
	C-114.3,339.2-114.2,339.2-114.2,339.2 M-129.9,337.4c0,0,0.1,0,0.1-0.1c0-0.1,0-0.2-0.1-0.2c0,0,0,0-0.1,0.1
	C-129.9,337.2-129.9,337.3-129.9,337.4 M-122.7,312.9c0-0.1,0-0.2,0-0.2c0,0-0.1,0-0.1,0c0,0.1,0,0.2,0,0.2
	C-122.7,312.9-122.7,312.9-122.7,312.9 M-114.6,302.4c0-0.1-0.1-0.2-0.1-0.2c0,0-0.1,0-0.1,0.1
	C-114.8,302.3-114.7,302.3-114.6,302.4C-114.7,302.4-114.7,302.4-114.6,302.4 M-118.5,302.1c0,0.1,0.1,0.2,0.1,0.2c0,0,0.1,0,0.1,0
	c0-0.1-0.1-0.2-0.1-0.2C-118.5,302.1-118.5,302.1-118.5,302.1"/>
<path d="M-74.6,315.9c0.1,0.6,0.1,1.1,0,1.7c-0.1,0.6-0.2,1.1-0.4,1.7c-0.2,0.6-0.3,1.1-0.4,1.7c-0.1,0.1-0.1,0.1-0.2,0.2
	c-1.4,0-2.6,0-3.9,0c-1.2,0-2.5,0-3.9,0c0.1-0.3,0.1-0.7,0.1-1c0-0.4,0-0.7,0-1c0-0.3-0.2-0.6-0.3-0.9c-0.2-0.3-0.4-0.5-0.8-0.7
	c-1,0-1.8,0.4-2.3,1.2c0,0,0.1,0,0.1,0c-0.2,0.1-0.2,0.2-0.3,0.4c0,0.2,0,0.3-0.1,0.5c-0.3,0.7-0.5,1.4-0.7,2.2
	c-0.2,0.8-0.4,1.6-0.6,2.2c0,0-0.1,0-0.1,0c-0.1,0.5-0.2,1-0.4,1.6c-0.2,0.5-0.4,1.1-0.6,1.7c-0.2,0.6-0.4,1.2-0.5,1.8
	c-0.1,0.6-0.2,1.2-0.1,1.8c0.2,0.4,0.5,0.6,0.9,0.7c0.2,0,0.4,0,0.6,0c0.2,0,0.5,0,0.7-0.1c0.5-0.2,0.9-0.5,1.1-0.9
	c0.3-0.3,0.5-0.7,0.6-1.1c0.2-0.4,0.3-0.8,0.4-1.3c0.1-0.4,0.3-0.8,0.4-1.2c1.4-0.2,2.7-0.3,4.1-0.4c1.4-0.1,2.7-0.1,4.1-0.1
	c-0.3,1.2-0.7,2.3-1,3.5c-0.4,1.2-0.8,2.4-1.3,3.5c-0.5,1.1-1.1,2.2-1.9,3.2c-0.7,1-1.7,1.8-2.9,2.5c-0.7,0.4-1.5,0.7-2.4,1
	c-0.8,0.2-1.5,0.4-2.3,0.5c-0.1,0-0.3,0-0.4,0c-1,0.1-2,0-3-0.1c-1-0.1-2-0.4-2.9-0.8c-1.2-0.5-2.2-1.2-2.7-2
	c-0.6-0.9-0.9-1.8-1.1-2.9c-0.1-1-0.1-2.1,0.2-3.2c0.2-1.1,0.5-2.1,0.8-3.1c0.6-2.2,1.4-4.3,2.1-6.4c0.7-2.1,1.4-4.2,1.7-6.4
	c0.3-1,0.7-1.8,1.2-2.6c0.5-0.8,1.1-1.5,1.8-2c0.7-0.6,1.4-1,2.3-1.3c0.9-0.3,1.8-0.5,2.7-0.5c0.5,0,1,0,1.6,0c0.2,0,0.4,0,0.7,0
	c0.3,0,0.6,0.1,1,0.1c0.1,0.1,0.2,0.2,0.3,0.3c0-0.1,0.1-0.2,0.1-0.2c1.4,0.2,2.8,0.8,4.1,1.7c1.3,0.9,2.4,1.9,3,3.1
	C-74.9,314.7-74.7,315.3-74.6,315.9z M-89.3,320.4c0.1,0,0.2-0.1,0.3-0.1C-89.1,320.3-89.2,320.3-89.3,320.4
	C-89.3,320.3-89.3,320.4-89.3,320.4"/>
<path d="M-56.3,315.5c2.7,0.6,5.3,1.3,8,2.1c-0.1,3-1,6-1.9,9.1c-1.3,4.3-2.8,8.8-1.6,13.3c-2.5-0.3-5-0.4-7.5-0.5c0,0,0-0.1,0-0.1
	c-0.1,0-0.1,0-0.2,0c0,0-0.1-0.1-0.1-0.1c0,0-0.1,0-0.1,0c0,0.1,0,0.1,0,0.2c0-0.2,0-0.4,0-0.6c0,0-0.1,0-0.1,0c0-0.3,0-0.5-0.1-0.8
	c-0.1-0.3-0.1-0.5,0-0.8c0,0,0.1,0,0.1,0c-0.1-0.1-0.1-0.2-0.2-0.4c-0.1-2,0.2-4,0.7-6c-0.5-0.1-1.1-0.2-1.7-0.3c-0.1,0-0.2,0-0.3,0
	c-0.7-0.1-1.4-0.1-2-0.1c-0.4,1.4-0.7,2.8-0.8,4.3c-0.1,1.5-0.1,3,0.2,4.5c-0.8,0-1.6-0.1-2.3-0.1c-0.4,0-0.8,0-1.1,0
	c-1.1,0-2.3,0.1-3.4,0.2c-0.1-0.1-0.2-0.1-0.2-0.1c0,0-0.1,0-0.1,0c-0.1,0.1-0.2,0.1-0.3,0.1c-1.4-6.4,2.3-12.6,3.5-18.7
	c0.5-2.5,0.6-5-0.2-7.5c2.7,0.4,5.3,0.8,8,1.4c0.5,2.9,0,5.8-0.8,8.8c-0.1,0.1-0.2,0.1-0.2,0.2c0,0.1,0,0.2,0,0.2c0,0.1,0,0.2,0,0.3
	c0,0.1,0,0.2,0,0.3c0.5,0.1,1.1,0.2,1.6,0.3c0.5,0.1,1,0.2,1.5,0.2c0.3-0.3,0.4-0.6,0.5-0.9c0.1-0.3,0.2-0.7,0.3-1
	c0.1-0.5,0.2-0.9,0.3-1.3c0,0,0-0.1,0-0.1c0,0,0.1,0,0.1,0c0.1-0.3,0.1-0.6,0.1-0.9c0-0.3,0.1-0.6,0.3-0.9c0,0-0.1,0-0.1,0
	c0.1,0,0.1,0,0.1-0.1c0-0.1,0-0.1,0-0.2c0-0.1,0-0.2,0-0.2c0-0.1,0.1-0.1,0.1-0.2c0,0-0.1,0-0.1,0c0.1-0.3,0.2-0.5,0.2-0.8
	c0,0-0.1,0-0.1,0c0-0.3,0.1-0.7,0.1-1c0.1-0.3,0-0.6-0.1-0.9c0-0.2,0.1-0.3,0.1-0.4C-56.3,315.8-56.3,315.7-56.3,315.5z
	 M-63.5,316.8c0,0,0-0.1,0-0.1c-0.1,0-0.1,0-0.2,0.1C-63.6,316.8-63.6,316.8-63.5,316.8 M-60.3,316.2
	C-60.3,316.2-60.3,316.2-60.3,316.2c0.1,0.1,0.1,0,0.2,0c0,0,0-0.1-0.1-0.1C-60.2,316.1-60.3,316.2-60.3,316.2 M-71.4,333.8
	c0,0,0.1,0,0.1,0c0,0,0,0,0-0.1C-71.3,333.7-71.4,333.7-71.4,333.8C-71.4,333.7-71.4,333.7-71.4,333.8"/>
<g>
	<path d="M-59.4,331.8c0,0,0,0.1,0,0.1C-59.4,331.9-59.4,331.8-59.4,331.8z"/>
</g>
<path d="M-29.5,326.9c0.3,0.2,0.6,0.4,0.8,0.5c-0.1,0.7-0.2,1.3-0.3,1.9c-0.2,0.6-0.3,1.2-0.5,1.8c-0.8-0.5-1.6-0.9-2.4-1.4
	c-0.2-0.1-0.4-0.2-0.6-0.3c-0.1-0.1-0.2-0.1-0.3-0.2c-0.9-0.5-1.8-0.9-2.7-1.3c-0.1,0.5-0.2,1-0.3,1.5c-0.1,0.5-0.2,1-0.4,1.5
	c0,0.1,0.1,0.1,0.2,0.2c0,0,0.1,0,0.1,0.1c0,0,0.1,0,0.1,0.1c0.1,0,0.2,0.1,0.3,0.1c0.1,0.1,0.2,0.1,0.2,0.2c0.1,0,0.3,0,0.4,0.1
	c0.3,0.1,0.5,0.3,0.8,0.4c0.5,0.3,1,0.5,1.5,0.8c0.5,0.2,1,0.5,1.5,0.8c0.3,0.2,0.5,0.3,0.8,0.5c-0.2,0.6-0.4,1.2-0.5,1.8
	c-0.1,0.6-0.3,1.2-0.4,1.8c-0.7-0.3-1.4-0.7-2.1-1c-0.3-0.2-0.7-0.3-1-0.5c-0.1-0.1-0.3-0.1-0.4-0.2c-0.9-0.4-1.8-0.8-2.7-1.1
	c-0.1,0.5-0.3,1-0.4,1.6c-0.1,0.5-0.1,1.1-0.2,1.6c0.6,0.2,1.1,0.4,1.7,0.6c0.5,0.2,1,0.4,1.5,0.6c0.3,0.1,0.7,0.3,1,0.4
	c0.7,0.3,1.5,0.6,2.3,0.9c-0.1,0.7-0.2,1.4-0.1,2.1c0,0.7,0.1,1.4,0.2,2.1c-1.2-0.4-2.4-0.8-3.6-1.2c-1.4-0.4-2.7-0.9-4-1.3
	c-1.9-0.6-3.7-1.1-5.6-1.5c-0.5-0.1-1.1-0.2-1.6-0.4c0-0.5,0-1,0-1.5c0.9-5.7,3.4-11.1,3.3-16.4c0-0.9-0.1-1.8-0.3-2.7
	c0.4,0.1,0.8,0.3,1.2,0.4C-37.5,322.2-33.3,324.4-29.5,326.9z M-42.4,332.3c-0.1,0,0,0.1,0.1,0.3c-0.1-0.1-0.1-0.1-0.1-0.1
	C-42.3,332.4-42.3,332.3-42.4,332.3 M-38.5,328.2C-38.5,328.2-38.4,328.2-38.5,328.2c0-0.1,0-0.1-0.1-0.2c0,0,0,0,0,0
	C-38.6,328.1-38.5,328.2-38.5,328.2 M-35.7,327.8C-35.7,327.8-35.6,327.8-35.7,327.8c0-0.1,0-0.1-0.1-0.2c0,0,0,0,0,0
	C-35.7,327.8-35.7,327.8-35.7,327.8 M-38.4,337.8c0.1,0,0.1,0,0.2,0C-38.3,337.8-38.3,337.8-38.4,337.8
	C-38.4,337.8-38.4,337.8-38.4,337.8"/>
<polygon fill="#FFED00" points="-43.3,223.6 -49.3,243.4 -29.5,238.8 -44,253.3 -24.4,259.4 -44.3,265 -30.5,280.3 -50.1,274.6 
	-37.9,306.5 -60.5,279.5 -66.7,299.5 -71.3,279.3 -86.5,293.6 -80.9,273.8 -101,278.6 -85.8,264.1 -106.3,257.4 -85.5,252.3 
	-100,237.1 -80.2,242.6 -84.8,222.6 -70.3,237.9 -64.7,217.7 -59.5,238.1 "/>
<g>
	<path d="M-67.2,258.9l-0.9,3.1l-2.6-0.1l-1.3,4.8l-3.2-0.1l1.4-4.8l-2.8-0.1l-1.4,4.8l-3.2-0.1l1.3-4.8l-2.6-0.1l0.9-3.1l2.6,0.1
		l0.7-2.7l-2.6-0.1l0.9-3.1l2.6,0.1l1.4-4.8l3.2,0.1l-1.4,4.8l2.8,0.1l1.4-4.8l3.2,0.1l-1.4,4.8l2.6,0.1l-0.9,3.1l-2.6-0.1l-0.7,2.7
		L-67.2,258.9z M-75.1,256l-0.8,2.7l2.8,0.1l0.8-2.7L-75.1,256z"/>
	<path d="M-53.8,252.6c-2.8,1.3-3.8,2.6-4.9,4.8c0.6-0.5,1.8-1.1,2.8-1.5c0.8-0.3,2.2-0.8,3.3-1c3.5,2.7,4.2,6.5,2.9,9.5
		c-1.4,3-5.3,5-10,5.3c-3.4-2.7-5-7.7-3.5-12.8c1.3-4.2,5.5-8.6,13.4-9.1l1.9,3.6C-50,251.5-51.9,251.7-53.8,252.6z M-59.2,261.9
		c0,0.8,0.1,1.4,0.3,1.9c0.2,0.5,0.6,1.6,1,1.9c1.2-0.3,2.8-0.9,3.5-2c0.9-1.3,0.9-2.9-0.1-4.3c-0.9,0.1-1.6,0.5-2.2,0.9
		C-57.6,260.7-58.3,261.1-59.2,261.9z"/>
</g>
</svg>
